<svg xmlns="http://www.w3.org/2000/svg" xmlns:xlink="http://www.w3.org/1999/xlink" width="300" zoomAndPan="magnify" viewBox="0 0 224.87999 52.499999" height="70" preserveAspectRatio="xMidYMid meet" version="1.0"><defs><clipPath id="d723fb238a"><path d="M 33.015625 19.6875 L 51.46875 19.6875 L 51.46875 37.851562 L 33.015625 37.851562 Z M 33.015625 19.6875 " clip-rule="nonzero"/></clipPath></defs><path fill="#ffffff" d="M 43.742188 28.972656 C 42.980469 30.320312 41.523438 31.234375 39.851562 31.234375 C 38.179688 31.234375 36.722656 30.320312 35.960938 28.972656 C 36.109375 28.683594 36.316406 28.414062 36.566406 28.175781 C 36.667969 28.074219 36.785156 27.980469 36.902344 27.894531 C 37.484375 27.457031 38.238281 27.148438 39.082031 27.027344 C 39.234375 27.007812 39.386719 26.992188 39.542969 26.984375 C 39.582031 26.984375 39.625 26.980469 39.667969 26.980469 L 39.660156 26.996094 L 39.636719 27.117188 L 39.011719 29.886719 L 39.851562 30.808594 L 40.691406 29.886719 L 40.0625 27.117188 L 40.035156 26.996094 L 40.035156 26.980469 C 40.078125 26.980469 40.113281 26.984375 40.15625 26.984375 C 40.3125 26.992188 40.46875 27.007812 40.621094 27.027344 C 41.460938 27.148438 42.214844 27.457031 42.800781 27.894531 C 43.207031 28.199219 43.527344 28.5625 43.742188 28.972656 " fill-opacity="1" fill-rule="nonzero"/><path fill="#ffffff" d="M 39.234375 26.550781 C 39.339844 26.582031 39.453125 26.609375 39.566406 26.625 C 39.632812 26.632812 39.695312 26.636719 39.761719 26.640625 C 39.789062 26.640625 39.820312 26.640625 39.851562 26.640625 C 39.878906 26.640625 39.914062 26.640625 39.941406 26.640625 C 40.003906 26.636719 40.070312 26.632812 40.132812 26.625 C 40.246094 26.609375 40.363281 26.582031 40.46875 26.550781 C 41.316406 26.289062 41.929688 25.507812 41.929688 24.582031 C 41.929688 23.445312 41 22.523438 39.851562 22.523438 C 38.703125 22.523438 37.773438 23.445312 37.773438 24.582031 C 37.773438 25.507812 38.386719 26.289062 39.234375 26.550781 " fill-opacity="1" fill-rule="nonzero"/><g clip-path="url(#d723fb238a)"><path fill="#ffffff" d="M 39.851562 21.101562 C 42.765625 21.101562 45.128906 23.441406 45.128906 26.332031 C 45.128906 27.257812 44.886719 28.128906 44.457031 28.882812 C 43.558594 30.484375 41.832031 31.566406 39.851562 31.566406 C 37.871094 31.566406 36.140625 30.484375 35.242188 28.882812 C 34.816406 28.128906 34.574219 27.257812 34.574219 26.332031 C 34.574219 23.441406 36.9375 21.101562 39.851562 21.101562 Z M 51.265625 36.714844 L 45.074219 30.582031 L 45.320312 30.242188 C 45.378906 30.15625 45.441406 30.070312 45.5 29.980469 C 46.296875 28.757812 46.675781 27.300781 46.566406 25.835938 C 46.441406 24.246094 45.75 22.75 44.613281 21.621094 C 43.34375 20.363281 41.652344 19.671875 39.851562 19.671875 C 38.046875 19.671875 36.355469 20.363281 35.089844 21.621094 C 32.8125 23.878906 32.507812 27.363281 34.179688 29.945312 C 34.433594 30.34375 34.738281 30.71875 35.089844 31.0625 C 35.277344 31.253906 35.476562 31.425781 35.679688 31.585938 C 35.714844 31.613281 35.746094 31.640625 35.78125 31.664062 C 36.511719 32.214844 37.34375 32.609375 38.234375 32.824219 C 38.757812 32.953125 39.300781 33.019531 39.851562 33.019531 C 40.402344 33.019531 40.941406 32.953125 41.464844 32.824219 C 42.296875 32.625 43.082031 32.265625 43.789062 31.761719 L 43.921875 31.664062 L 44.023438 31.59375 L 44.125 31.519531 L 50.316406 37.660156 C 50.445312 37.78125 50.613281 37.851562 50.789062 37.851562 C 50.972656 37.851562 51.140625 37.78125 51.265625 37.660156 C 51.390625 37.53125 51.460938 37.363281 51.460938 37.183594 C 51.460938 37.007812 51.390625 36.84375 51.265625 36.714844 " fill-opacity="1" fill-rule="nonzero"/></g><path fill="#7ed957" d="M 16.863281 20.394531 L 7.644531 20.394531 L 7.644531 22.800781 L 10.96875 22.800781 L 10.96875 32.332031 L 13.542969 32.332031 L 13.542969 22.800781 L 16.863281 22.800781 Z M 16.863281 20.394531 " fill-opacity="1" fill-rule="nonzero"/><path fill="#7ed957" d="M 29.960938 23.070312 C 28.765625 23.070312 27.945312 23.445312 27.28125 24.265625 L 26.839844 23.125 L 25.253906 23.125 L 25.253906 32.332031 L 27.746094 32.332031 L 27.746094 27.554688 C 27.746094 26.054688 28.289062 25.425781 29.6875 25.425781 L 30.777344 25.425781 L 30.777344 23.070312 Z M 29.960938 23.070312 " fill-opacity="1" fill-rule="nonzero"/><path fill="#7ed957" d="M 54.917969 22.871094 C 53.964844 22.871094 53.09375 23.140625 52.398438 23.636719 L 52.398438 19.816406 L 49.90625 19.816406 L 49.90625 32.347656 L 51.730469 32.347656 L 52.039062 31.566406 C 52.804688 32.226562 53.792969 32.601562 54.917969 32.601562 C 57.714844 32.601562 59.761719 30.523438 59.761719 27.746094 C 59.761719 24.949219 57.714844 22.871094 54.917969 22.871094 Z M 54.714844 30.25 C 53.265625 30.25 52.207031 29.160156 52.207031 27.726562 C 52.207031 26.296875 53.265625 25.203125 54.714844 25.203125 C 56.164062 25.203125 57.222656 26.296875 57.222656 27.726562 C 57.222656 29.160156 56.164062 30.25 54.714844 30.25 Z M 54.714844 30.25 " fill-opacity="1" fill-rule="nonzero"/><path fill="#7ed957" d="M 75.871094 23.125 L 75.613281 23.992188 C 74.8125 23.292969 73.773438 22.871094 72.582031 22.871094 C 69.816406 22.871094 67.753906 24.949219 67.753906 27.726562 C 67.753906 30.507812 69.816406 32.601562 72.582031 32.601562 C 73.757812 32.601562 74.777344 32.195312 75.566406 31.496094 L 75.785156 32.332031 L 77.730469 32.332031 L 77.730469 23.125 Z M 72.785156 30.25 C 71.335938 30.25 70.277344 29.160156 70.277344 27.726562 C 70.277344 26.277344 71.335938 25.203125 72.785156 25.203125 C 74.234375 25.203125 75.289062 26.277344 75.289062 27.726562 C 75.289062 29.175781 74.234375 30.25 72.785156 30.25 Z M 72.785156 30.25 " fill-opacity="1" fill-rule="nonzero"/><path fill="#7ed957" d="M 87.15625 21.894531 L 89.625 21.894531 L 89.625 19.59375 L 87.15625 19.59375 Z M 84.992188 35.65625 L 86.183594 35.65625 C 88.210938 35.65625 89.644531 34.226562 89.644531 32.210938 L 89.644531 23.125 L 87.15625 23.125 L 87.15625 32.023438 C 87.15625 32.910156 86.679688 33.371094 85.789062 33.371094 L 84.992188 33.371094 Z M 84.992188 35.65625 " fill-opacity="1" fill-rule="nonzero"/><path fill="#7ed957" d="M 98.851562 21.894531 L 101.320312 21.894531 L 101.320312 19.59375 L 98.851562 19.59375 Z M 98.851562 32.332031 L 101.339844 32.332031 L 101.339844 23.125 L 98.851562 23.125 Z M 98.851562 32.332031 " fill-opacity="1" fill-rule="nonzero"/><path fill="#7ed957" d="M 115.046875 30.117188 C 114.128906 30.117188 113.613281 29.601562 113.613281 28.714844 L 113.613281 25.132812 L 116.121094 25.132812 L 116.121094 23.125 L 113.582031 23.125 L 113.582031 20.738281 L 113.101562 20.738281 L 109.472656 24.589844 L 109.472656 25.132812 L 111.125 25.132812 L 111.125 29.058594 C 111.125 31.085938 112.371094 32.332031 114.398438 32.332031 L 116.175781 32.332031 L 116.175781 30.117188 Z M 115.046875 30.117188 " fill-opacity="1" fill-rule="nonzero"/><path fill="#7ed957" d="M 129.058594 32.601562 C 131.910156 32.601562 134.039062 30.507812 134.039062 27.726562 C 134.039062 24.949219 131.910156 22.871094 129.058594 22.871094 C 126.210938 22.871094 124.082031 24.949219 124.082031 27.726562 C 124.082031 30.507812 126.210938 32.601562 129.058594 32.601562 Z M 129.058594 30.25 C 127.628906 30.25 126.605469 29.226562 126.605469 27.726562 C 126.605469 26.246094 127.628906 25.203125 129.058594 25.203125 C 130.492188 25.203125 131.511719 26.246094 131.511719 27.726562 C 131.511719 29.226562 130.492188 30.25 129.058594 30.25 Z M 129.058594 30.25 " fill-opacity="1" fill-rule="nonzero"/><path fill="#7ed957" d="M 145.902344 32.601562 C 148.238281 32.601562 149.773438 31.375 149.773438 29.503906 C 149.773438 27.25 147.847656 26.941406 146.347656 26.667969 C 145.394531 26.5 144.605469 26.34375 144.605469 25.730469 C 144.605469 25.203125 145.066406 24.863281 145.832031 24.863281 C 146.707031 24.863281 147.21875 25.222656 147.234375 25.953125 L 149.605469 25.953125 C 149.585938 24.113281 148.117188 22.871094 145.902344 22.871094 C 143.6875 22.871094 142.203125 24.082031 142.203125 25.816406 C 142.203125 27.984375 144.078125 28.375 145.546875 28.628906 C 146.515625 28.785156 147.320312 28.972656 147.320312 29.601562 C 147.320312 30.214844 146.6875 30.539062 146.007812 30.539062 C 145.117188 30.539062 144.488281 30.132812 144.472656 29.3125 L 142.050781 29.3125 C 142.050781 31.273438 143.601562 32.601562 145.902344 32.601562 Z M 145.902344 32.601562 " fill-opacity="1" fill-rule="nonzero"/><path fill="#7ed957" d="M 158.226562 32.332031 L 160.871094 32.332031 L 160.871094 29.671875 L 158.226562 29.671875 Z M 158.226562 32.332031 " fill-opacity="1" fill-rule="nonzero"/><path fill="#7ed957" d="M 174.183594 32.601562 C 176.589844 32.601562 178.484375 31.035156 178.910156 28.714844 L 176.40625 28.714844 C 175.976562 29.703125 175.195312 30.25 174.183594 30.25 C 172.855469 30.25 171.816406 29.144531 171.816406 27.726562 C 171.816406 26.296875 172.839844 25.203125 174.183594 25.203125 C 175.175781 25.203125 176.011719 25.746094 176.40625 26.652344 L 178.875 26.652344 C 178.433594 24.386719 176.589844 22.871094 174.207031 22.871094 C 171.40625 22.871094 169.292969 24.949219 169.292969 27.710938 C 169.292969 30.472656 171.40625 32.601562 174.183594 32.601562 Z M 174.183594 32.601562 " fill-opacity="1" fill-rule="nonzero"/><path fill="#7ed957" d="M 191.746094 32.601562 C 194.59375 32.601562 196.722656 30.507812 196.722656 27.726562 C 196.722656 24.949219 194.59375 22.871094 191.746094 22.871094 C 188.894531 22.871094 186.769531 24.949219 186.769531 27.726562 C 186.769531 30.507812 188.894531 32.601562 191.746094 32.601562 Z M 191.746094 30.25 C 190.3125 30.25 189.292969 29.226562 189.292969 27.726562 C 189.292969 26.246094 190.3125 25.203125 191.746094 25.203125 C 193.179688 25.203125 194.199219 26.246094 194.199219 27.726562 C 194.199219 29.226562 193.179688 30.25 191.746094 30.25 Z M 191.746094 30.25 " fill-opacity="1" fill-rule="nonzero"/><path fill="#7ed957" d="M 215.800781 22.917969 C 214.625 22.917969 213.582031 23.5 212.953125 24.386719 C 212.410156 23.460938 211.453125 22.917969 210.277344 22.917969 C 209.1875 22.917969 208.179688 23.445312 207.53125 24.265625 L 207.070312 23.125 L 205.332031 23.125 L 205.332031 32.332031 L 207.824219 32.332031 L 207.824219 27.351562 C 207.824219 25.921875 208.484375 25.101562 209.609375 25.101562 C 210.5 25.101562 210.976562 25.746094 210.976562 26.980469 L 210.976562 32.332031 L 213.398438 32.332031 L 213.398438 27.351562 C 213.398438 25.921875 214.058594 25.101562 215.171875 25.101562 C 216.074219 25.101562 216.550781 25.746094 216.550781 26.980469 L 216.550781 32.332031 L 219.042969 32.332031 L 219.042969 26.566406 C 219.042969 24.402344 217.710938 22.917969 215.800781 22.917969 Z M 215.800781 22.917969 " fill-opacity="1" fill-rule="nonzero"/></svg>